<svg version="1.1" id="Capa_1" xmlns="http://www.w3.org/2000/svg" xmlns:xlink="http://www.w3.org/1999/xlink" x="0px" y="0px"
	 viewBox="0 0 100 100" style="enable-background:new 0 0 100 100;" xml:space="preserve">
<g>
	<g>
		<g>
			<path d="M31.2,0H0v31.2h31.2V0z M25,25H6.2V6.2H25V25z"/>
			<rect x="12.5" y="12.5" width="6.2" height="6.2"/>
			<path d="M68.8,0v31.2H100V0H68.8z M93.8,25H75V6.2h18.8V25z"/>
			<rect x="81.2" y="12.5" width="6.2" height="6.2"/>
			<path d="M0,100h31.2V68.7H0V100z M6.2,75H25v18.8H6.2V75z"/>
			<rect x="12.5" y="81.2" width="6.2" height="6.2"/>
			<rect x="50" y="0" width="12.5" height="6.2"/>
			<polygon points="50,25 56.2,25 56.2,18.7 62.5,18.7 62.5,12.5 43.8,12.5 43.8,6.2 37.5,6.2 37.5,12.5 37.5,15.6 37.5,18.7 
				50,18.7 			"/>
			<rect x="37.5" y="25" width="6.2" height="6.2"/>
			<polygon points="62.5,31.2 56.2,31.2 56.2,37.5 37.5,37.5 37.5,43.7 62.5,43.7 			"/>
			<polygon points="6.2,56.2 12.5,56.2 12.5,50 6.2,50 6.2,37.5 0,37.5 0,62.5 6.2,62.5 			"/>
			<rect x="12.5" y="37.5" width="6.2" height="6.2"/>
			<polygon points="37.5,62.5 50,62.5 50,56.2 43.8,56.2 43.8,50 31.2,50 31.2,37.5 25,37.5 25,50 18.8,50 18.8,62.5 25,62.5 
				25,56.2 28.1,56.2 31.2,56.2 37.5,56.2 			"/>
			<rect x="56.2" y="50" width="6.2" height="12.5"/>
			<polygon points="56.2,68.7 37.5,68.7 37.5,75 50,75 50,93.7 37.5,93.7 37.5,100 56.2,100 56.2,93.7 68.8,93.7 68.8,87.5 
				56.2,87.5 			"/>
			<rect x="37.5" y="81.2" width="6.2" height="6.2"/>
			<rect x="62.5" y="68.7" width="6.2" height="12.5"/>
			<polygon points="93.8,81.2 75,81.2 75,100 81.2,100 81.2,87.5 93.8,87.5 			"/>
			<rect x="87.5" y="93.7" width="12.5" height="6.2"/>
			<rect x="93.8" y="68.7" width="6.2" height="6.2"/>
			<polygon points="75,75 81.2,75 81.2,56.2 68.8,56.2 68.8,62.5 75,62.5 			"/>
			<polygon points="87.5,43.7 81.2,43.7 81.2,37.5 75,37.5 75,43.7 68.8,43.7 68.8,50 93.8,50 93.8,43.7 100,43.7 100,37.5 
				87.5,37.5 			"/>
			<rect x="87.5" y="56.2" width="12.5" height="6.2"/>
		</g>
	</g>
</g>
</svg>
